<svg xmlns="http://www.w3.org/2000/svg" viewBox="0 0 29 29" width="29" height="29">
	<defs>
		<clipPath clipPathUnits="userSpaceOnUse" id="cp1">
			<path d="M-171 -295L204 -295L204 372L-171 372Z" />
		</clipPath>
	</defs>
	<style>
		tspan { white-space:pre }
		.shp0 { fill: #ffffff } 
		.shp1 { fill: #000000 } 
	</style>
	<g id="rowery-1" clip-path="url(#cp1)">
		<g id="rower na mapie">
			<path id="tloTram" class="shp0" d="M14.5 26C20.85 26 26 20.85 26 14.5C26 8.15 20.85 3 14.5 3C8.15 3 3 8.15 3 14.5C3 20.85 8.15 26 14.5 26Z" />
			<path id="Shape" fill-rule="evenodd" class="shp1" d="M16.86 8.11C17.23 8.18 17.61 8.32 17.91 8.6C18.22 8.88 18.4 9.3 18.4 9.75C18.4 10.14 18.22 10.5 18.01 10.73C17.81 10.96 17.58 11.11 17.36 11.22C17.25 11.27 17.24 11.26 17.14 11.3L17.71 13.86C17.72 13.86 17.74 13.86 17.75 13.86C19.57 13.86 21 15.29 21 17.11C21 18.93 19.57 20.36 17.75 20.36C15.93 20.36 14.5 18.93 14.5 17.11C14.5 15.76 15.28 14.62 16.43 14.12L16.17 12.92C14.17 13.16 12.69 14.76 12.04 15.6C12.73 16.07 13.2 16.86 13.2 17.76C13.2 19.19 12.03 20.36 10.6 20.36C9.17 20.36 8 19.19 8 17.76C8 16.33 9.17 15.16 10.6 15.16C10.66 15.16 10.71 15.17 10.76 15.18C10.87 15.01 10.98 14.84 11.25 14.51L10.21 13.29C10.12 13.3 10.02 13.33 9.95 13.33C9.3 13.33 8.65 13.08 8.65 11.91L12.55 11.91C12.55 12.49 12.42 12.63 11.9 12.82C11.84 12.84 11.69 12.89 11.6 12.92L12.14 13.53C13.04 12.69 14.31 11.83 15.9 11.62L15.76 11.01L15.62 10.36L16.27 10.22C16.27 10.22 16.53 10.18 16.77 10.06C16.9 10 17.01 9.91 17.06 9.86C17.11 9.8 17.1 9.79 17.1 9.75C17.1 9.59 17.09 9.59 17.04 9.55C16.99 9.51 16.85 9.44 16.61 9.39C16.13 9.29 15.33 9.31 14.5 9.31L14.5 8.01C15.29 8.01 16.12 7.96 16.86 8.11ZM18.38 16.96L18.36 16.96C18.37 17.01 18.4 17.05 18.4 17.11C18.4 17.46 18.11 17.76 17.75 17.76C17.44 17.76 17.21 17.53 17.14 17.25L17.12 17.25L17.1 17.11L16.73 15.44C16.17 15.78 15.8 16.38 15.8 17.11C15.8 18.21 16.65 19.06 17.75 19.06C18.85 19.06 19.7 18.21 19.7 17.11C19.7 16.08 18.98 15.29 17.99 15.18L18.38 16.96ZM9.3 17.76C9.3 18.47 9.88 19.06 10.6 19.06C11.32 19.06 11.9 18.47 11.9 17.76C11.9 17.18 11.52 16.69 11.01 16.52C10.99 16.51 10.97 16.5 10.95 16.5C10.93 16.49 10.9 16.5 10.88 16.5C10.88 16.49 10.87 16.48 10.86 16.48C10.78 16.46 10.69 16.46 10.6 16.46C9.88 16.46 9.3 17.04 9.3 17.76Z" />
		</g>
	</g>
</svg>